<?xml version="1.0" encoding="UTF-8"?>
<svg width="180px" height="158px" viewBox="0 0 180 158" version="1.1" xmlns="http://www.w3.org/2000/svg" xmlns:xlink="http://www.w3.org/1999/xlink">
    <!-- Generator: Sketch 52.2 (67145) - http://www.bohemiancoding.com/sketch -->
    <title>Group 71</title>
    <desc>Created with Sketch.</desc>
    <defs>
        <polygon id="path-1" points="0 0.437602941 26.4601765 0.437602941 26.4601765 22.0106912 0 22.0106912"></polygon>
        <polygon id="path-3" points="0.0219420693 0.378529412 20.2687941 0.378529412 20.2687941 27.8914853 0.0219420693 27.8914853"></polygon>
    </defs>
    <g id="001" stroke="none" stroke-width="1" fill="none" fill-rule="evenodd">
        <g id="Group-71">
            <path d="M65.8541029,85.5259412 C68.3595441,81.7115294 72.0596912,79.683 76.5071912,78.9422647 C78.1766029,78.6643235 79.8543971,78.6378529 81.5895441,78.8222647 C80.54175,79.5974118 79.5111618,80.2772647 78.5745441,81.0687353 C75.7796912,83.4321176 73.8420441,86.3394706 73.1229265,89.9822647 C71.8704265,96.3255 74.8002794,102.325059 80.5545441,105.268588 C83.4124853,106.730647 86.4698382,107.317853 89.6383676,107.465206 C93.4938088,107.644765 97.1710147,106.985206 100.539838,105.018882 C105.751015,101.977853 108.810132,97.4055 109.969985,91.5334412 C110.215279,90.2893235 110.293368,89.0125588 110.449544,87.7507941 C110.469397,87.5888824 110.496309,87.4278529 110.659544,87.2293235 C110.960868,87.9210882 111.294838,88.6000588 111.557779,89.3055 C112.552191,91.9693235 112.725132,94.7487353 112.55925,97.5462353 C112.26675,102.471529 110.460574,106.766382 107.003074,110.326235 C103.894103,113.526971 100.075721,115.461529 95.7605735,116.384029 C89.0079265,117.827559 82.3991029,117.369618 76.0748382,114.4455 C70.6179265,111.922853 66.4324853,108.024176 64.2363088,102.367412 C61.9779265,96.5518235 62.3732206,90.8262353 65.8541029,85.5259412 M72.2996912,117.371382 C76.0554265,119.224765 80.0520441,120.175941 84.2246912,120.428294 C89.4199853,120.742853 94.4974853,120.201088 99.3927794,118.348147 C104.239544,116.513735 108.475279,113.779324 111.769985,109.727559 C115.530574,105.103147 117.257779,99.7869706 117.192926,93.8262353 C117.130721,88.1399118 115.250868,83.2565294 111.157632,79.2700588 C110.866897,78.9872647 110.746456,78.7044706 110.746897,78.2941765 C110.757485,62.7938824 110.755721,47.2931471 110.755721,31.7932941 L110.755721,31.1235882 L117.295279,31.1235882 L117.295279,29.2384412 L94.9527794,29.2384412 L94.9527794,31.128 C95.1879265,31.128 95.3899853,31.1359412 95.5907206,31.1266765 C97.6095441,31.0335882 99.6283676,30.9166765 101.632191,31.3071176 C103.441456,31.6591765 104.382926,32.5027059 104.578368,34.3415294 C104.791897,36.3444706 104.859838,38.3707941 104.86425,40.3874118 C104.889838,51.4697647 104.876603,62.5521176 104.876603,73.6344706 L104.876603,74.4131471 C104.685574,74.3227059 104.603074,74.2900588 104.52675,74.2472647 C99.5860147,71.4775588 94.6501324,68.7012353 89.7049853,65.9403529 C87.7236618,64.8343235 85.8076324,63.6360882 84.0910147,62.1427059 C81.6243971,59.9963824 80.1146912,57.3621176 79.9849853,54.0303529 C79.7908676,49.0472647 82.1741029,45.3921176 86.7380735,43.8184412 C89.4773382,42.8738824 92.2880735,42.8734412 95.0943971,43.5277059 C97.8738088,44.1753529 99.7585147,45.8624118 100.766162,48.5359412 C101.643221,50.8627059 101.919838,53.2896176 101.949838,55.7500588 C101.988221,58.8568235 101.981603,61.9640294 101.994397,65.0707941 C101.994838,65.2362353 101.994397,65.4016765 101.994397,65.5918235 L103.748074,65.5918235 L103.748074,36.5394706 L101.993515,36.5394706 L101.993515,42.4362353 C101.755721,42.3532941 101.581456,42.2977059 101.410721,42.2324118 C97.8164559,40.8607941 94.1260147,40.1438824 90.2595441,40.5246176 C86.2779265,40.9168235 82.76925,42.2813824 79.9210147,45.2107941 C76.0298382,49.2131471 74.8968971,56.0787353 77.3701324,61.0772647 C78.6548382,63.6735882 80.6374853,65.6615294 82.8698382,67.4315294 C86.3873382,70.2215294 90.3076324,72.3727059 94.1886618,74.5913824 C97.6280735,76.5581471 101.016309,78.6153529 104.430574,80.6257941 C104.777779,80.8300588 104.890279,81.0960882 104.884985,81.4971176 C104.854985,83.7987353 104.881015,86.1016765 104.832044,88.4028529 C104.764103,91.5771176 104.382926,94.7041765 103.254838,97.7032941 C101.929985,101.224324 99.5643971,103.632265 95.8721912,104.6205 C93.8061618,105.173735 91.6960147,105.318 89.5810147,105.096529 C84.8132206,104.597559 81.4377794,102.144618 79.5693971,97.7099118 C78.66675,95.5675588 78.4638088,93.2963824 78.53925,90.9947647 C78.6588088,87.3413824 79.5530735,83.9363824 81.7991029,80.9747647 C82.1595441,80.4991765 82.5451324,80.0425588 82.9916029,79.4862353 C82.7723382,79.3424118 82.5543971,79.1990294 82.3364559,79.0556471 C82.3673382,79.008 82.3977794,78.9599118 82.4286618,78.9118235 C83.1239559,79.1090294 83.83425,79.2643235 84.5118971,79.5100588 C89.1482206,81.1913824 91.6152794,84.8588824 91.2283676,89.4568235 C90.9932206,92.2485882 89.4632206,93.9643235 86.7301324,94.3838824 C85.9677794,94.5007941 85.1723382,94.4019706 84.3464559,94.4019706 C84.2321912,94.8581471 84.1157206,95.3231471 83.9943971,95.8066765 C86.2554265,96.7644706 88.5208676,97.0759412 90.8820441,96.4856471 C93.5035147,95.8305 95.1579265,94.1937353 95.8183676,91.5863824 C96.2516029,89.8746176 96.2493971,88.1337353 95.8770441,86.4118235 C95.0648382,82.6591765 92.6785147,80.1462353 89.3891029,78.4102059 C86.8616029,77.0760882 84.1121912,76.5881471 81.2785147,76.4434412 C74.5841029,76.1010882 68.8611618,78.3162353 64.4207206,83.2997647 C59.4032206,88.9305 58.1070441,95.6407941 59.8814559,102.858882 C61.5658676,109.709471 66.0941029,114.308735 72.2996912,117.371382" id="Fill-1" fill="#FFFFFF"></path>
            <path d="M83.4835147,143.340971 C84.6323382,142.697294 85.7754265,142.003765 86.6070441,140.708029 C85.9836618,140.352882 85.4383676,139.977 84.8432206,139.716706 C83.57925,139.163471 82.2610147,138.799059 80.8739559,138.680824 C79.5720441,138.570088 78.2771912,138.299647 76.9761618,138.274059 C75.4205735,138.243618 73.85925,138.368029 72.3045441,138.481853 C70.8341029,138.589941 69.3601324,138.714353 67.9038088,138.936265 C66.1863088,139.197882 64.4741029,139.5195 62.7813088,139.9095 C60.39675,140.458765 58.0646912,141.183176 55.8018971,142.138765 C53.5488088,143.090382 51.35175,144.124941 49.4141029,145.642147 C48.8776324,146.062147 48.8846912,146.304794 49.4330735,146.709794 C49.5354265,146.785676 49.6536618,146.844353 49.7714559,146.893765 C51.1285147,147.457147 52.5168971,147.898324 53.9926324,148.026706 C56.0149853,148.203176 58.0333676,148.503176 60.0583676,148.550824 C61.8296912,148.592294 63.6098382,148.382294 65.3820441,148.240235 C66.8520441,148.122 68.33175,148.024941 69.7796912,147.766853 C71.5757206,147.447 73.3470441,146.985529 75.1227794,146.559353 C78.0508676,145.856559 80.8554265,144.813176 83.4835147,143.340971" id="Fill-3" fill="#FFFFFF"></path>
            <path d="M20.2356618,108.879 C22.0555147,110.495471 23.9680147,111.981794 25.9599265,113.382529 C28.2588971,114.999441 30.6624265,116.430176 33.16875,117.686206 C35.5131618,118.860618 37.9577206,119.800765 40.5271324,120.349588 C41.5934559,120.577676 42.6959559,120.821206 43.7896324,120.455029 C43.9683088,119.825029 43.3431618,118.312676 42.9125735,117.545912 C41.8316912,115.619294 40.4358088,113.9265 38.8828676,112.367824 C38.0649265,111.546794 37.2116912,110.752676 36.31125,110.024294 C34.6969853,108.718853 33.0915441,107.388265 31.3766912,106.223118 C29.5643382,104.990912 27.6646324,103.873853 25.73625,102.829588 C24.0805147,101.932676 22.3608088,101.133706 20.6124265,100.434441 C19.2452206,99.8882647 17.7796324,99.5935588 16.3775735,99.1276765 C15.2071324,98.739 14.0102206,98.6481176 12.66375,98.5770882 C12.7286029,98.9970882 12.7052206,99.3535588 12.8411029,99.6332647 C13.2871324,100.551794 13.7049265,101.502971 14.2894853,102.332382 C15.9972794,104.756206 18.0169853,106.907824 20.2356618,108.879" id="Fill-5" fill="#FFFFFF"></path>
            <path d="M123.992029,128.618426 C125.772176,128.103132 127.038353,126.815338 128.393206,125.697397 C129.445853,124.828721 130.379824,123.792397 131.256,122.738868 C132.570265,121.158132 133.851882,119.542103 135.032029,117.860338 C136.664382,115.535779 138.129971,113.099162 139.297324,110.502397 C140.090559,108.737691 140.859529,106.95975 141.564971,105.158426 C142.3335,103.19475 142.814824,101.146368 143.121882,99.0596029 C143.273206,98.0356324 143.394088,97.01475 142.870412,95.9921029 C140.486294,97.1056324 138.572471,98.7578382 136.787471,100.536662 C135.415853,101.903868 134.169529,103.406074 132.953206,104.916662 C131.873206,106.257838 130.822765,107.639162 129.917912,109.101221 C128.734676,111.012397 127.652912,112.991956 126.631147,114.995338 C125.835706,116.554897 125.090118,118.157691 124.519235,119.809456 C123.869824,121.687985 123.280853,123.611074 123.262324,125.635191 C123.254382,126.509603 123.307324,127.385779 123.361147,128.259309 C123.384971,128.651074 123.548206,128.74725 123.992029,128.618426" id="Fill-7" fill="#FFFFFF"></path>
            <path d="M59.5742647,121.094956 C60.7358824,122.602015 61.9442647,124.075985 63.195,125.509809 C63.8320588,126.239515 64.5983824,126.858926 65.3210294,127.511868 C66.6295588,128.693338 67.8904412,129.937897 69.2792647,131.017456 C70.9557353,132.32025 72.7111765,133.529074 74.4922059,134.687162 C77.1855882,136.438191 80.0307353,137.907309 83.1194118,138.843926 C84.3485294,139.217162 85.5913235,139.551132 86.9060294,139.497309 C87.3595588,139.478779 87.5126471,139.268779 87.3988235,138.914515 C87.0869118,137.944368 86.8239706,136.937603 86.3492647,136.04775 C85.7669118,134.954074 85.0561765,133.911132 84.2801471,132.942309 C83.1997059,131.591868 82.0702941,130.267897 80.8447059,129.049809 C79.6588235,127.870985 78.3476471,126.814368 77.0510294,125.753338 C75.8607353,124.779221 74.6452941,123.83025 73.3879412,122.945691 C72.1936765,122.106132 70.9469118,121.337162 69.6944118,120.584515 C66.8572059,118.879809 63.8664706,117.507309 60.6670588,116.631574 C59.5958824,116.338632 58.4933824,116.159515 57.2197059,115.889515 C57.3348529,116.481574 57.3736765,116.883044 57.4936765,117.258926 C57.9423529,118.667603 58.6804412,119.935544 59.5742647,121.094956" id="Fill-9" fill="#FFFFFF"></path>
            <path d="M163.578176,99.5654118 C161.247882,100.117765 159.016412,100.961294 156.822441,101.939382 C154.677882,102.896294 152.625529,104.008059 150.645088,105.246441 C149.123471,106.197618 147.652588,107.244971 146.242147,108.354529 C144.517147,109.711147 142.852147,111.1485 141.213618,112.608794 C140.512588,113.233059 139.942588,114.004676 139.312588,114.708794 C138.178324,115.976735 137.262,117.397324 136.521706,118.919382 C136.234059,119.511882 136.144059,120.201441 135.945971,120.912176 C136.350088,120.975265 136.6395,121.078941 136.917441,121.053353 C137.961706,120.957176 139.023176,120.912176 140.039206,120.678794 C143.242147,119.942912 146.186559,118.524971 149.043176,116.955265 C150.851559,115.961294 152.605676,114.839382 154.270235,113.618647 C156.302735,112.128794 158.257147,110.524676 160.163912,108.875118 C161.287588,107.902324 162.313324,106.7985 163.271118,105.659382 C164.392588,104.325706 165.460676,102.935118 166.411853,101.477912 C166.825676,100.843059 167.295088,100.101882 167.104059,99.0364412 C165.897441,99.2111471 164.715529,99.2954118 163.578176,99.5654118" id="Fill-11" fill="#FFFFFF"></path>
            <path d="M141.029912,133.665221 C138.505941,132.905074 135.940941,132.289632 133.298294,132.061103 C131.554765,131.910221 129.820941,131.584632 128.077412,131.535221 C125.235794,131.454926 122.386676,131.423603 119.555647,131.839191 C117.5805,132.129485 115.607118,132.403897 113.714912,133.082868 C112.258588,133.605221 110.822559,134.151397 109.784471,135.37875 C110.734324,136.542574 112.033147,137.152279 113.367706,137.688309 C115.047265,138.362868 116.777559,138.862721 118.540059,139.299485 C121.0305,139.915809 123.562853,140.185368 126.093,140.472574 C127.512265,140.633603 128.957559,140.601838 130.390941,140.599632 C132.067853,140.596985 133.750059,140.60625 135.419029,140.473897 C136.990059,140.349044 138.5505,140.070221 140.108294,139.816544 C142.298735,139.460515 144.447265,138.935956 146.436529,137.91375 C146.915206,137.667574 147.334765,137.305809 147.858441,136.944926 C147.551382,136.684632 147.359912,136.486544 147.135353,136.337426 C145.256824,135.091103 143.162118,134.307574 141.029912,133.665221" id="Fill-13" fill="#FFFFFF"></path>
            <path d="M56.9754265,139.577162 C58.5720441,139.39275 60.1686618,139.105985 61.7251324,138.707603 C63.4324853,138.270838 65.12175,137.726868 66.7655735,137.092015 C68.0114559,136.610691 69.2004265,135.954221 70.2129265,134.808044 C69.5449853,134.338191 68.9643971,133.851132 68.3136618,133.488485 C66.8520441,132.674515 65.2373382,132.248338 63.6252794,131.864956 C62.6114559,131.623632 61.5632206,131.498779 60.5233676,131.40525 C58.4979265,131.222162 56.4689559,131.040838 54.4377794,130.969368 C53.2399853,130.927456 52.0338088,131.079221 50.8338088,131.176721 C49.2160147,131.308191 47.5911618,131.405691 45.9866029,131.638191 C44.2686618,131.887456 42.5524853,132.202897 40.8693971,132.625544 C39.3508676,133.006721 37.8491029,133.49775 36.3949853,134.077897 C35.0970441,134.595838 33.8582206,135.271721 32.6246912,135.936574 C31.9633676,136.292603 31.9907206,136.371574 32.5320441,136.890397 C32.6127794,136.967162 32.6864559,137.069074 32.7839559,137.108779 C34.0995441,137.643926 35.3833676,138.307897 36.7470441,138.663926 C38.5660147,139.139515 40.4374853,139.458044 42.3054265,139.689221 C44.3211618,139.938926 46.3585147,140.036868 48.38925,140.145397 C49.2005735,140.188632 50.0216029,140.099074 50.8360147,140.043485 C52.8839559,139.903191 54.9380735,139.813191 56.9754265,139.577162" id="Fill-15" fill="#FFFFFF"></path>
            <path d="M112.228897,119.908853 C110.875368,120.638118 109.546103,121.416353 108.237574,122.224147 C107.271397,122.819735 106.325074,123.457235 105.423309,124.145912 C104.218456,125.065324 103.061691,126.048706 101.889926,127.011794 C101.120956,127.644 100.313603,128.239588 99.6090441,128.938412 C98.5008088,130.037382 97.4463971,131.192824 96.4025735,132.354441 C95.0578676,133.851794 93.9072794,135.493853 93.1074265,137.345471 C92.7659559,138.135618 92.5961029,138.999441 92.2974265,140.000471 C93.3769853,139.9215 94.2549265,139.938265 95.0997794,139.779441 C96.9761029,139.426941 98.7452206,138.717529 100.459632,137.898706 C103.429191,136.479882 106.239485,134.795029 108.874632,132.809294 C111.245956,131.022529 113.587279,129.212824 115.581397,126.9915 C116.672426,125.776059 117.863162,124.647088 118.915368,123.400765 C120.194779,121.884882 121.336103,120.258265 122.126691,118.419882 C122.374191,117.844588 122.627868,117.255176 122.529926,116.468559 C121.511691,116.650765 120.534044,116.739441 119.609779,117.010324 C118.125662,117.444882 116.660956,117.959735 115.217868,118.516941 C114.194338,118.912235 113.195074,119.388265 112.228897,119.908853" id="Fill-17" fill="#FFFFFF"></path>
            <path d="M130.707044,146.34 C130.311309,146.014853 129.91425,145.672941 129.467779,145.429853 C127.910868,144.581471 126.374691,143.673971 124.750721,142.974706 C122.858956,142.159853 120.919103,141.411176 118.935574,140.871618 C116.716897,140.268529 114.434691,139.878529 112.163074,139.497353 C110.332632,139.189853 108.481015,138.901765 106.631603,138.844853 C104.386897,138.776029 102.125868,138.869118 99.8877794,139.066765 C98.4614559,139.1925 97.0501324,139.585588 95.6582206,139.957059 C95.0026324,140.132206 94.3907206,140.505882 93.7920441,140.847353 C93.2463088,141.158824 93.2357206,141.337059 93.6910147,141.767206 C94.1789559,142.229118 94.6668971,142.705147 95.2179265,143.083676 C97.8738088,144.909265 100.874691,145.987059 103.932926,146.869412 C106.83675,147.707647 109.808515,148.2975 112.825279,148.573676 C115.054544,148.7775 117.292191,148.908088 119.528956,149.019265 C120.378221,149.061176 121.234985,148.956618 122.088662,148.918676 C122.096162,148.968088 122.104103,149.017059 122.112044,149.066471 C123.960132,148.767353 125.821456,148.531324 127.651456,148.145294 C128.63925,147.937059 129.583809,147.498088 130.527485,147.113382 C130.970868,146.932941 131.023809,146.600294 130.707044,146.34" id="Fill-19" fill="#FFFFFF"></path>
            <path d="M53.0649706,114.079632 C51.5685,111.028897 49.8214412,108.118456 47.6980588,105.459044 C46.2889412,103.694338 44.8489412,101.945074 43.3017353,100.303015 C42.2032059,99.1374265 40.9401176,98.1147794 39.6783529,97.1199265 C38.8705588,96.4833088 37.9312941,96.0143382 37.0511471,95.4699265 C36.9801176,95.5047794 36.9086471,95.5396324 36.8376176,95.5740441 C36.7723235,96.0593382 36.6073235,96.5552206 36.6602647,97.0272794 C36.8208529,98.4655147 36.9735,99.9156618 37.2982059,101.322132 C37.8285,103.620662 38.6023235,105.850368 39.6505588,107.972426 C40.6793824,110.056103 41.6124706,112.198897 42.7957059,114.191691 C44.0080588,116.234338 45.4326176,118.157426 46.8426176,120.074779 C47.7373235,121.290221 48.7215882,122.451397 49.7654118,123.541103 C50.6658529,124.48125 51.7030588,125.290809 52.6882059,126.148015 C53.0967353,126.503603 53.4898235,126.901544 53.9565882,127.15875 C54.7136471,127.575662 55.5258529,127.892868 56.2912941,128.240956 C56.8829118,126.929779 56.7386471,125.671544 56.5833529,124.505956 C56.3508529,122.760221 55.9207059,121.014485 55.3476176,119.346838 C54.7273235,117.542426 53.9076176,115.797132 53.0649706,114.079632" id="Fill-21" fill="#FFFFFF"></path>
            <path d="M165.204132,120.726132 C162.390309,119.685397 159.448544,119.35275 156.485162,119.290103 C154.331338,119.244662 152.172221,119.392015 150.017956,119.500544 C148.858985,119.559221 147.691632,119.642162 146.552074,119.848632 C144.627662,120.197162 142.711191,120.603485 140.81325,121.073779 C137.860897,121.804368 134.974279,122.722015 132.342221,124.312015 C130.817956,125.23275 129.328544,126.175544 128.21325,127.78275 C128.799574,128.074368 129.299868,128.394221 129.845603,128.581279 C132.072662,129.344956 134.392809,129.61275 136.727956,129.697015 C138.064721,129.745103 139.409868,129.677603 140.746632,129.590691 C142.421779,129.481279 144.102221,129.366132 145.762368,129.128779 C147.554426,128.872015 149.344279,128.545103 151.102809,128.116721 C154.861191,127.201279 158.534868,126.012309 161.950015,124.161132 C163.207368,123.479956 164.455897,122.744074 165.415897,121.63275 C165.835015,121.147897 165.786926,120.941868 165.204132,120.726132" id="Fill-23" fill="#FFFFFF"></path>
            <path d="M40.2077206,129.136059 C42.7683088,129.237088 45.3324265,129.182382 47.8594853,128.691353 C49.1750735,128.435471 50.4584559,128.048118 51.6527206,127.120324 C50.9115441,126.427235 50.1849265,125.753118 49.4649265,125.072382 C48.4749265,124.137088 47.2616912,123.579882 46.0511029,123.004147 C43.0431618,121.573412 39.8684559,120.632382 36.62625,119.977235 C34.0215441,119.451353 31.3709559,119.099294 28.7238971,118.850912 C26.9022794,118.679735 25.0515441,118.835471 23.2140441,118.812088 C21.1908088,118.786059 19.2050735,119.078118 17.2400735,119.505176 C16.1988971,119.7315 15.1872794,120.095912 14.1624265,120.397676 C14.1474265,120.484147 14.1319853,120.570618 14.1165441,120.657088 C14.4341912,121.032971 14.7063971,121.461794 15.0765441,121.775029 C16.6590441,123.113118 18.4961029,124.044882 20.3759559,124.863706 C23.1761029,126.083559 26.0794853,127.031206 29.0653676,127.679294 C30.9606618,128.090471 32.87625,128.433265 34.7984559,128.686941 C36.5905147,128.923853 38.4006618,129.065029 40.2077206,129.136059" id="Fill-25" fill="#FFFFFF"></path>
            <path d="M160.166382,85.7321029 C161.341676,84.7540147 162.460941,83.6996029 163.529471,82.6046029 C164.311676,81.8021029 165.044471,80.9321029 165.677118,80.0082794 C166.928294,78.1826912 168.158735,76.3363676 169.274912,74.4269559 C170.105206,73.00725 170.819471,71.5068088 171.445059,69.98475 C172.262118,67.9968088 173.035059,65.9806324 173.646971,63.9229853 C174.103147,62.3876912 174.316676,60.7743088 174.553147,59.1825441 C174.666971,58.4148971 174.596824,57.6154853 174.149029,56.9082794 C172.602706,57.5740147 171.392118,58.6363676 170.263588,59.7569559 C169.002265,61.0090147 167.823882,62.3546029 166.704618,63.7368088 C165.702706,64.9743088 164.725941,66.2559265 163.923882,67.6266618 C162.614029,69.86475 161.375647,72.1531324 160.260794,74.4935735 C159.534618,76.0178382 159.020206,77.6537206 158.525206,79.2746029 C158.163882,80.4582794 157.970647,81.6957794 157.734176,82.9156324 C157.484912,84.2051912 157.593,85.4757794 158.077853,86.9007794 C158.824765,86.4931324 159.582706,86.2178382 160.166382,85.7321029" id="Fill-27" fill="#FFFFFF"></path>
            <path d="M44.3588382,34.9179706 C45.59325,33.5022353 46.6339853,31.9056176 47.6636912,30.3257647 C49.0476618,28.2032647 50.2110441,25.9607647 50.8388382,23.4787059 C50.9703088,22.959 50.73075,22.6479706 50.2401618,22.7992941 C49.1628088,23.1323824 48.0558971,23.4226765 47.0451618,23.9057647 C44.7214853,25.0157647 42.5619265,26.4116471 40.60575,28.0934118 C38.8935441,29.5656176 37.16325,31.0267941 35.5578088,32.6110588 C34.3189853,33.834 33.24075,35.2237059 32.1281029,36.5701765 C30.3475147,38.7253235 28.8413382,41.0565 27.7348676,43.6356176 C27.2919265,44.6688529 26.8891324,45.7056176 27.0042794,46.899 C27.5451618,46.899 28.0445735,46.9788529 28.50825,46.8848824 C30.3589853,46.509 32.0094265,45.6487059 33.5883971,44.6467941 C35.5031029,43.4317941 37.3538382,42.1254706 38.9566324,40.5103235 C40.7826618,38.6701765 42.6576618,36.8688529 44.3588382,34.9179706" id="Fill-29" fill="#FFFFFF"></path>
            <path d="M179.697485,78.2409265 C179.058662,78.3450441 178.437485,78.4050441 177.837044,78.5519559 C175.481162,79.1281324 173.249691,80.0471029 171.12675,81.1994559 C169.583515,82.0368088 168.052191,82.9240147 166.628074,83.9466618 C164.762338,85.2869559 162.953956,86.7198971 161.223221,88.2309265 C159.810574,89.4640147 158.479103,90.8082794 157.238956,92.2156324 C155.936603,93.6935735 154.794838,95.3175441 153.994985,97.1343088 C153.713074,97.7744559 153.61425,98.4993088 153.462926,99.1923971 C153.371162,99.6123971 153.598368,99.7425441 154.006456,99.7288676 C155.476456,99.6781324 156.856897,99.2550441 158.211309,98.7362206 C161.191456,97.5953382 163.901162,95.9510735 166.494397,94.1241618 C167.915426,93.1231324 169.276897,92.0184265 170.559838,90.8453382 C172.215132,89.3316618 173.857632,87.7835735 175.332044,86.0987206 C176.619397,84.6273971 177.729397,82.9866618 178.795721,81.3415147 C179.361309,80.4684265 179.913221,79.5000441 179.697485,78.2409265" id="Fill-31" fill="#FFFFFF"></path>
            <path d="M125.99025,9.74422059 C127.467309,12.8095147 129.190985,15.7203971 131.272015,18.42525 C132.893338,20.53275 134.533632,22.6146618 136.559515,24.3537794 C137.523485,25.1809853 138.501132,25.9967206 139.525985,26.7453971 C140.549956,27.4931912 141.683338,28.0583382 142.930544,28.3614265 C143.49525,28.4986324 143.693338,28.3649559 143.678338,27.7746618 C143.662456,27.1459853 143.666868,26.5045147 143.541132,25.8930441 C143.123338,23.8605441 142.379074,21.9339265 141.479956,20.0686324 C139.896132,16.7823088 137.953191,13.7231912 135.665691,10.8784853 C134.085397,8.91392647 132.452162,7.00804412 130.567456,5.31613235 C129.164074,4.05657353 127.727603,2.85613235 126.104074,1.89613235 C125.317456,1.43113235 124.522456,0.949808824 123.437162,0.994808824 C123.49275,1.60539706 123.486574,2.16525 123.601721,2.69863235 C124.128044,5.13657353 124.906279,7.49466176 125.99025,9.74422059" id="Fill-33" fill="#FFFFFF"></path>
            <g id="Group-37" transform="translate(0.000000, 77.268529)">
                <mask id="mask-2" fill="white">
                    <use xlink:href="#path-1"></use>
                </mask>
                <g id="Clip-36"></g>
                <path d="M18.5913529,19.5511324 C20.3873824,20.5146618 22.2412059,21.3131912 24.2348824,21.7437794 C24.9301765,21.8937794 25.6523824,21.9176029 26.4601765,22.0106912 C26.4116471,21.47025 26.4182647,21.0961324 26.3384118,20.7418676 C26.0732647,19.5687794 25.4626765,18.5571618 24.8684118,17.5230441 C23.7191471,15.5245147 22.1454706,13.8784853 20.5929706,12.2223088 C19.6409118,11.2071618 18.5370882,10.3318676 17.4800294,9.41907353 C15.4259118,7.64510294 13.2204706,6.08642647 10.8901765,4.68701471 C8.28811765,3.12436765 5.60002941,1.77877941 2.66091176,0.982897059 C1.85929412,0.765838235 1.03914706,0.617161765 0.227382353,0.437602941 C0.1515,0.521426471 0.0756176471,0.60525 -0.000264705882,0.688632353 C0.207088235,1.38039706 0.3015,2.13525 0.644735294,2.75113235 C1.329,3.98069118 2.08429412,5.18289706 2.93002941,6.30569118 C3.97164706,7.68833824 5.08958824,9.02025 6.26091176,10.29525 C7.10444118,11.2137794 8.06091176,12.0356912 9.01694118,12.8417206 C10.2963529,13.9203971 11.6163529,14.9509853 12.9319412,15.9859853 C14.6926765,17.3721618 16.6197353,18.4936324 18.5913529,19.5511324" id="Fill-35" fill="#FFFFFF" mask="url(#mask-2)"></path>
            </g>
            <path d="M148.783676,46.3504412 C149.807647,46.8097059 150.903088,47.0823529 152.088088,46.8847059 C152.095147,46.7920588 152.107059,46.7033824 152.1075,46.6147059 C152.111912,45.2713235 151.599706,44.0642647 151.033235,42.8964706 C150.102794,40.98 149.039559,39.1354412 147.6675,37.4902941 C146.325882,35.8808824 145.029706,34.23 143.616176,32.6867647 C142.589559,31.5661765 141.439853,30.5497059 140.28,29.5627941 C138.978529,28.4554412 137.645294,27.3754412 136.249853,26.3920588 C135.055588,25.5507353 133.771765,24.8289706 132.492794,24.1164706 C131.356765,23.4833824 130.145294,23.0130882 128.851765,22.7885294 C128.341324,22.7002941 128.110147,22.9610294 128.256176,23.4794118 C128.330294,23.7423529 128.445,23.9938235 128.512941,24.2576471 C128.987647,26.1079412 129.8925,27.7747059 130.843676,29.3964706 C132.262941,31.8163235 133.897941,34.0994118 135.828088,36.1460294 C137.212059,37.6129412 138.646765,39.0322059 140.0775,40.4541176 C141.664853,42.0322059 143.467059,43.35 145.345147,44.5482353 C146.433088,45.2422059 147.603971,45.8219118 148.783676,46.3504412" id="Fill-38" fill="#FFFFFF"></path>
            <path d="M6.25672059,43.7574265 C6.81348529,46.2147794 7.48760294,48.6434559 8.45951471,50.9750735 C9.16760294,52.6744853 9.84436765,54.3933088 10.6671618,56.0375735 C11.9990735,58.6996324 13.5723088,61.2227206 15.5399559,63.4731618 C16.3583382,64.4093382 17.2574559,65.2638971 18.3581912,65.8775735 C18.7548088,66.0981618 19.0256912,66.0593382 19.1249559,65.5709559 C19.3398088,64.5152206 19.5515735,63.4586029 19.7306912,62.5705147 C19.5881912,61.4146324 19.4439265,60.4497794 19.3543676,59.4796324 C19.1518676,57.2759559 18.5403971,55.1644853 17.8737794,53.0741912 C16.8987794,50.0163971 15.6246618,47.0772794 14.0646618,44.2700735 C13.4889265,43.23375 12.8893676,42.2040441 12.2170147,41.2290441 C11.4251029,40.0811029 10.5573088,38.9838971 9.69436765,37.88625 C8.78642647,36.7299265 7.76157353,35.6913971 6.54613235,34.8438971 C6.11863235,34.5461029 5.94304412,34.6903676 5.86672059,35.1125735 C5.73966176,35.8144853 5.55083824,36.52125 5.54907353,37.22625 C5.54554412,38.3155147 5.64348529,39.4083088 5.76216176,40.4927206 C5.88216176,41.5863971 6.01407353,42.68625 6.25672059,43.7574265" id="Fill-40" fill="#FFFFFF"></path>
            <g id="Group-44" transform="translate(36.176471, 0.062647)">
                <mask id="mask-4" fill="white">
                    <use xlink:href="#path-3"></use>
                </mask>
                <g id="Clip-43"></g>
                <path d="M1.99791176,27.3872206 C3.41055882,26.7973676 4.71732353,25.9983971 5.82026471,24.9325147 C7.55276471,23.2573676 9.35364706,21.6303088 10.9057059,19.7963382 C12.4515882,17.9698676 13.8254118,15.9753088 15.0911471,13.9406029 C16.2571765,12.0664853 17.2921765,10.0900147 18.1754118,8.06722059 C18.9311471,6.33604412 19.4235,4.48530882 19.9643824,2.66722059 C20.1651176,1.99222059 20.1730588,1.25986765 20.2687941,0.553544118 C20.2193824,0.494867647 20.1699706,0.436632353 20.1205588,0.378397059 C19.566,0.538544118 18.9770294,0.626338235 18.4630588,0.871191176 C16.3965882,1.85545588 14.6499706,3.30692647 13.0105588,4.86736765 C11.6711471,6.14192647 10.3785,7.48222059 9.20232353,8.90677941 C7.71864706,10.70325 6.27467647,12.5491324 4.99394118,14.4925147 C3.14629412,17.29575 1.62247059,20.2811912 0.620558824,23.5114853 C0.191294118,24.8954559 -0.0769411765,26.2847206 0.0562941176,27.8914853 C0.746294118,27.7181029 1.40629412,27.6342794 1.99791176,27.3872206" id="Fill-42" fill="#FFFFFF" mask="url(#mask-4)"></path>
            </g>
            <path d="M7.45747059,67.2231618 C8.44394118,69.5371324 9.49791176,71.8272794 10.6405588,74.0675735 C11.3362941,75.4321324 12.1921765,76.7274265 13.0864412,77.9750735 C14.1532059,79.4622794 15.2914412,80.9049265 16.4879118,82.2902206 C17.2749706,83.2016912 18.1745294,84.0328676 19.1085,84.7956618 C19.7790882,85.3427206 20.5842353,85.7283088 21.3412941,86.1659559 C21.6854118,86.3644853 21.8971765,86.2356618 21.9585,85.8355147 C22.0520294,85.2205147 22.2787941,84.6002206 22.2395294,83.9958088 C22.161,82.7693382 22.0432059,81.5274265 21.7590882,80.3358088 C21.2045294,78.0072794 20.4876176,75.72375 19.3621765,73.5897794 C18.4092353,71.7831618 17.5348235,69.9324265 16.5161471,68.1641912 C15.7321765,66.8022794 14.7929118,65.5277206 13.8968824,64.2324265 C12.3880588,62.0525735 10.6224706,60.0955147 8.59747059,58.3877206 C7.81570588,57.7281618 6.94658824,57.1669853 6.09026471,56.6022794 C5.72585294,56.3613971 5.48232353,56.5206618 5.41835294,56.9666912 C5.35791176,57.3858088 5.31379412,57.8066912 5.24673529,58.3568382 C5.37379412,59.2061029 5.49644118,60.1731618 5.66717647,61.1309559 C6.04129412,63.2261029 6.62541176,65.2713971 7.45747059,67.2231618" id="Fill-45" fill="#FFFFFF"></path>
            <path d="M145.396015,101.867338 C145.652779,103.055426 146.052926,104.239544 147.133368,105.242338 C147.702485,104.509103 148.272926,103.867632 148.738809,103.156897 C150.124544,101.041015 150.979985,98.6793971 151.633368,96.2648382 C152.171603,94.2746912 152.554103,92.2351324 152.881897,90.1973382 C153.19425,88.2557206 153.424544,86.2929265 153.543662,84.3305735 C153.634103,82.8305735 153.457191,81.3160147 153.467338,79.8085147 C153.47925,78.0049853 153.144838,76.2477794 152.748662,74.5130735 C152.530279,73.5561618 152.003956,72.6680735 151.601603,71.7548382 C151.45425,71.4195441 151.273809,71.4182206 151.054985,71.7288088 C150.748809,72.1633676 150.342485,72.5396912 150.098074,73.00425 C149.313662,74.4936618 148.516897,75.9830735 147.848956,77.5258676 C146.852338,79.8274853 146.192338,82.2464559 145.715426,84.7068971 C145.433074,86.1636618 145.230574,87.6376324 145.036015,89.1098382 C144.854691,90.4783676 144.661897,91.85175 144.603662,93.2282206 C144.547632,94.5451324 144.588221,95.8757206 144.712632,97.1886618 C144.86175,98.7566029 145.063809,100.329397 145.396015,101.867338" id="Fill-47" fill="#FFFFFF"></path>
            <path d="M160.497662,59.9278235 C160.295603,61.4578235 160.140309,62.9732647 160.326926,64.4984118 C160.413838,65.2065 160.697956,65.8907647 160.892515,66.5856176 C160.969279,66.6098824 161.046485,66.6337059 161.124132,66.6575294 C161.771338,66.1832647 162.461779,65.7570882 163.057368,65.2245882 C164.665015,63.7859118 165.907809,62.0419412 167.069868,60.2379706 C168.352809,58.2478235 169.41825,56.1451765 170.378691,53.9847353 C171.441926,51.594 172.324279,49.1410588 173.009426,46.6153235 C173.538838,44.6653235 174.014426,42.7047353 174.121632,40.6801765 C174.19575,39.2820882 174.237221,37.8795882 174.214279,36.4806176 C174.206338,36.0217941 173.951779,35.5673824 173.769574,34.9806176 C173.218103,35.4010588 172.752221,35.6763529 172.386926,36.0500294 C171.426485,37.0329706 170.434721,38.0004706 169.594279,39.0826765 C168.505897,40.4838529 167.467368,41.9401765 166.562956,43.4648824 C165.604721,45.0804706 164.774868,46.7794412 163.990015,48.4885588 C163.291191,50.0110588 162.646632,51.5701765 162.129132,53.1619412 C161.411338,55.3691471 160.804279,57.6059118 160.497662,59.9278235" id="Fill-49" fill="#FFFFFF"></path>
            <path d="M33.9500294,83.5225588 C33.5781176,81.4300588 33.0081176,79.3900588 32.1407647,77.4506471 C31.3656176,75.7177059 30.5282647,74.0112353 29.6609118,72.3228529 C29.3966471,71.8088824 28.9409118,71.3937353 28.5451765,70.8987353 C27.8498824,71.6152059 27.5379706,72.4000588 27.3319412,73.2100588 C27.0844412,74.1837353 26.8969412,75.1763824 26.7495882,76.1703529 C26.5669412,77.4078529 26.3631176,78.6524118 26.3256176,79.8987353 C26.2312059,82.9984412 26.3009118,86.0972647 26.8704706,89.1607941 C27.2220882,91.0494706 27.5017941,92.9584412 27.9866471,94.8131471 C28.4512059,96.5902059 29.0856176,98.3293235 29.7456176,100.046824 C30.2856176,101.450647 30.9875294,102.795794 32.0260588,103.912412 C32.8841471,104.834912 33.0195882,104.785059 33.6187059,103.619912 C34.2019412,102.485206 34.6082647,101.300647 34.7476765,100.026971 C34.9219412,98.4356471 35.1588529,96.8496176 35.2748824,95.2547647 C35.3410588,94.3521176 35.2307647,93.4357941 35.1787059,92.5265294 C35.1160588,91.4368235 35.0984118,90.3387353 34.9404706,89.2618235 C34.6585588,87.3418235 34.2897353,85.4341765 33.9500294,83.5225588" id="Fill-51" fill="#FFFFFF"></path>
            <path d="M23.0265882,63.1836176 C22.6145294,64.4855294 22.2033529,65.7989118 21.9496765,67.137 C21.6629118,68.6506765 21.5901176,70.2031765 21.3536471,71.7278824 C21.1277647,73.1864118 21.3721765,74.5805294 21.7436471,76.1405294 C22.2205588,75.9221471 22.6352647,75.7800882 23.0001176,75.5564118 C24.4926176,74.6422941 25.6167353,73.3408235 26.6446765,71.9568529 C28.0568824,70.0558235 29.2335,68.0184706 30.2649706,65.8809706 C31.6105588,63.0909706 32.7218824,60.222 33.5618824,57.2453824 C34.2607059,54.7699412 34.7795294,52.2525882 34.9330588,49.6867059 C35.0226176,48.1867059 34.8924706,46.6730294 34.8373235,45.1664118 C34.8192353,44.6621471 34.6114412,44.5584706 34.146,44.8077353 C33.1520294,45.3389118 32.3111471,46.0712647 31.6295294,46.9580294 C30.4674706,48.4695 29.2767353,49.9681765 28.2382059,51.5634706 C27.3540882,52.9209706 26.6389412,54.3922941 25.9035,55.8406765 C25.3899706,56.8514118 24.9249706,57.8917059 24.516,58.9487647 C23.9764412,60.3437647 23.4774706,61.7572941 23.0265882,63.1836176" id="Fill-53" fill="#FFFFFF"></path>
            <path d="M27.2261912,32.7293382 C27.3986912,34.0519853 27.8098676,35.3252206 28.5938382,36.5119853 C29.0301618,36.1881618 29.5088382,35.9477206 29.8322206,35.5731618 C31.1266324,34.0744853 32.0998676,32.3702206 32.8097206,30.5247794 C33.2548676,29.3675735 33.6797206,28.1975735 34.0181029,27.0055147 C34.45575,25.4600735 34.83825,23.8965441 35.1673676,22.3246324 C35.39325,21.2481618 35.5044265,20.1461029 35.6367794,19.0519853 C35.8008971,17.6984559 36.0108971,16.3444853 36.0625147,14.9856618 C36.1485441,12.7391912 36.0686912,10.4958088 35.7629559,8.25683824 C35.5560441,6.74360294 35.2789853,5.25683824 34.7923676,3.81330882 C34.4522206,2.80345588 34.3233971,2.78007353 33.5645735,3.56977941 C32.3239853,4.86110294 31.5475147,6.44669118 30.8081029,8.04772059 C29.7320735,10.3771324 28.9128088,12.8084559 28.3551618,15.3028676 C27.8200147,17.6953676 27.4136912,20.12625 27.1225147,22.5611029 C26.8992794,24.4228676 26.8776618,26.3168382 26.8900147,28.1958088 C26.9001618,29.7081618 27.03075,31.2284559 27.2261912,32.7293382" id="Fill-55" fill="#FFFFFF"></path>
            <path d="M145.179706,25.0569706 C145.869265,28.0327059 146.786912,30.9457941 148.318235,33.6149118 C148.938088,34.6944706 149.575147,35.7824118 150.628676,36.5315294 C151.301029,37.0097647 151.467794,36.9674118 151.771324,36.1975588 C151.777941,36.1807941 151.770882,36.1587353 151.778824,36.1424118 C152.64,34.3309412 152.882647,32.3699118 152.978382,30.4159412 C153.073676,28.4650588 153.007059,26.4978529 152.874265,24.5469706 C152.749853,22.7156471 152.5425,20.8777059 152.194853,19.0772647 C151.780588,16.9300588 151.261765,14.7938824 150.634853,12.6987353 C149.889706,10.2060882 148.9125,7.78932353 147.490588,5.58961765 C146.959412,4.76814706 146.471029,3.86991176 145.415735,3.43402941 C145.310735,3.70270588 145.224265,3.92241176 145.138235,4.143 C144.659118,5.37961765 144.358676,6.65638235 144.231618,7.97902941 C144.106324,9.27917647 143.871176,10.5727059 143.812059,11.8750588 C143.693824,14.4744706 143.846471,17.0690294 144.249265,19.6424118 C144.5325,21.4521176 144.766765,23.2759412 145.179706,25.0569706" id="Fill-57" fill="#FFFFFF"></path>
            <path d="M158.087162,76.6315588 C158.236279,75.9795 158.474515,75.3825882 158.493485,74.7790588 C158.575103,72.1690588 158.500103,69.5705294 157.739956,67.0337647 C157.248044,65.3917059 156.893779,63.7072941 156.367456,62.0775882 C155.373926,59.0034706 153.956426,56.1084706 152.412309,53.2792059 C151.878044,52.3011176 151.256426,51.3649412 150.614956,50.4517059 C149.950985,49.5058235 149.247309,48.5828824 148.500838,47.7005294 C147.663044,46.7092059 146.745838,45.7875882 145.573191,45.1774412 C145.282897,45.0265588 145.080838,45.1946471 145.050838,45.4624412 C144.949809,46.3792059 144.827162,47.3008235 144.824956,48.2206765 C144.823191,49.1224412 144.929956,50.0277353 145.038485,50.9250882 C145.203926,52.2927353 145.319074,53.6753824 145.618632,55.0147941 C146.521279,59.0400882 147.873926,62.9167059 149.714515,66.6146471 C150.77025,68.7349412 151.919956,70.7996471 153.403632,72.6605294 C154.672015,74.2518529 155.994221,75.7800882 158.087162,76.6315588" id="Fill-59" fill="#FFFFFF"></path>
            <path d="M17.7695294,43.3177941 C17.9270294,45.3564706 18.3307059,47.3497059 19.0295294,49.2652941 C19.3643824,50.1838235 19.8757059,51.0414706 20.3451176,51.9061765 C20.5454118,52.275 20.7995294,52.2701471 21.1414412,51.9502941 C22.2677647,50.8972059 22.8426176,49.5238235 23.3693824,48.1420588 C24.0205588,46.4342647 24.4339412,44.6598529 24.7780588,42.8567647 C25.2090882,40.6010294 25.3908529,38.3285294 25.5007059,36.0502941 C25.5739412,34.5291176 25.4279118,32.9982353 25.4146765,31.4713235 C25.3970294,29.4538235 25.1204118,27.4689706 24.7348235,25.4947059 C24.3183529,23.3589706 23.7761471,21.2611765 22.8223235,19.2926471 C22.2664412,18.1455882 22.0957059,18.1530882 21.3554118,19.2132353 C20.2683529,20.7705882 19.6732059,22.5480882 19.1521765,24.3317647 C18.2755588,27.3308824 17.7726176,30.4129412 17.5626176,33.5302941 C17.4704118,34.9014706 17.5471765,36.2836765 17.5471765,37.6610294 C17.4748235,37.6636765 17.4024706,37.6658824 17.3301176,37.6685294 C17.4765882,39.5514706 17.6239412,41.4344118 17.7695294,43.3177941" id="Fill-61" fill="#FFFFFF"></path>
            <path d="M155.176853,43.8274412 C155.532441,45.8259706 156.071559,47.7781765 156.925235,49.6368529 C157.473618,50.8311176 158.032588,51.9962647 159.338471,52.8922941 C159.830382,51.9089118 160.415824,51.0247941 160.724647,50.0533235 C161.210382,48.5268529 161.619794,46.9580294 161.858912,45.3764118 C162.160235,43.392 162.326118,41.3797941 162.420529,39.3733235 C162.493765,37.8142059 162.386559,36.2449412 162.323029,34.6814118 C162.282882,33.6839118 162.231265,32.6815588 162.087441,31.6955294 C161.877882,30.2656765 161.569941,28.8499412 161.323324,27.4249412 C160.902441,24.9922941 160.086265,22.6884706 159.028765,20.4693529 C158.811265,20.0131765 158.468029,19.6064118 158.1345,19.2181765 C157.791265,18.8175882 157.494353,18.8471471 157.282147,19.3143529 C156.8445,20.2787647 156.357,21.2365588 156.068471,22.2481765 C155.637882,23.7565588 155.392588,25.3165588 155.012735,26.8403824 C154.512882,28.8455294 154.429059,30.897 154.382735,32.9361176 C154.334647,35.052 154.452441,37.1762647 154.597588,39.2899412 C154.701265,40.8089118 154.909941,42.3274412 155.176853,43.8274412" id="Fill-63" fill="#FFFFFF"></path>
            <path d="M88.2806471,141.704426 C87.8434412,142.072368 87.4018235,142.435456 86.9606471,142.798544 C85.6799118,143.852956 84.4031471,144.911779 83.1162353,145.95825 C81.5888824,147.200603 80.0518235,148.432368 78.5187353,149.668544 C77.3725588,150.592809 76.2228529,151.512221 75.0824118,152.443985 C74.4921176,152.926632 73.9190294,153.430897 73.3124118,153.947074 C73.4597647,154.104132 73.5510882,154.220603 73.6605,154.315456 C74.4696176,155.01825 75.303,155.694574 76.0843235,156.427368 C76.4077059,156.730456 76.5916765,156.69075 76.8528529,156.395603 C77.823,155.299279 78.7966765,154.206485 79.7840294,153.125603 C80.8049118,152.008103 81.8544706,150.916632 82.8709412,149.796044 C84.5019706,147.998691 86.1197647,146.188985 87.7366765,144.378838 C88.3507941,143.691485 88.9472647,142.989574 89.6288824,142.205603 C89.4144706,142.031779 89.2093235,141.871191 89.0107941,141.703103 C88.7646176,141.494426 88.5281471,141.496191 88.2806471,141.704426" id="Fill-65" fill="#FFFFFF"></path>
            <path d="M103.415294,153.069044 C102.161912,151.940074 100.914265,150.804485 99.6705882,149.664485 C98.145,148.265956 96.6344118,146.851103 95.1013235,145.461397 C93.6052941,144.105221 92.0889706,142.771985 90.5501471,141.40125 C89.6708824,142.111985 89.6532353,142.209044 90.2523529,143.041103 C90.2955882,143.101103 90.3551471,143.149191 90.4019118,143.206985 C91.3464706,144.373897 92.2888235,145.541691 93.2329412,146.708603 C94.1938235,147.895368 95.1467647,149.089191 96.1191176,150.266691 C97.1351471,151.497132 98.1776471,152.704632 99.1936765,153.935074 C100.130294,155.069779 101.064265,156.208015 101.960294,157.374485 C102.186176,157.66875 102.301765,157.572574 102.466324,157.392574 C102.6525,157.189191 102.813529,156.962868 102.996176,156.755956 C103.595735,156.075662 104.210735,155.408162 104.79,154.711544 C104.868088,154.617132 104.844265,154.311838 104.752941,154.224044 C104.328529,153.816838 103.852941,153.463456 103.415294,153.069044" id="Fill-67" fill="#FFFFFF"></path>
            <path d="M118.390941,43.1478088 C118.391382,43.1473676 118.392706,43.1451618 118.394912,43.1425147 C118.395794,43.1416324 118.396676,43.1403088 118.397118,43.1394265 C118.399765,43.1363382 118.402412,43.1328088 118.403735,43.1314853 C118.402853,43.1310441 118.401529,43.1310441 118.400647,43.1310441 C118.395353,43.1297206 118.390059,43.1288382 118.384324,43.1279559 C118.386529,43.1350147 118.388735,43.1411912 118.390941,43.1478088 Z" id="Fill-69" fill="#FFFFFF"></path>
        </g>
    </g>
</svg>